<svg width="24" height="24" viewBox="0 0 24 24" fill="none" xmlns="http://www.w3.org/2000/svg">
<path d="M20.0602 6.46161C20.8249 6.46161 21.4448 5.8417 21.4448 5.077C21.4448 4.3123 20.8249 3.69238 20.0602 3.69238C19.2955 3.69238 18.6755 4.3123 18.6755 5.077C18.6755 5.8417 19.2955 6.46161 20.0602 6.46161Z" fill="black"/>
<path d="M16.3675 3.69257C17.1322 3.69257 17.7521 3.07266 17.7521 2.30796C17.7521 1.54325 17.1322 0.92334 16.3675 0.92334C15.6028 0.92334 14.9829 1.54325 14.9829 2.30796C14.9829 3.07266 15.6028 3.69257 16.3675 3.69257Z" fill="black"/>
<path d="M12.6759 2.76923C13.4406 2.76923 14.0605 2.14932 14.0605 1.38462C14.0605 0.619913 13.4406 0 12.6759 0C11.9112 0 11.2913 0.619913 11.2913 1.38462C11.2913 2.14932 11.9112 2.76923 12.6759 2.76923Z" fill="black"/>
<path d="M8.98374 4.61542C9.74844 4.61542 10.3684 3.99551 10.3684 3.23081C10.3684 2.4661 9.74844 1.84619 8.98374 1.84619C8.21903 1.84619 7.59912 2.4661 7.59912 3.23081C7.59912 3.99551 8.21903 4.61542 8.98374 4.61542Z" fill="black"/>
<path d="M18.6757 5.07707V11.0771C18.6757 11.3318 18.4689 11.5386 18.2142 11.5386C17.9594 11.5386 17.7526 11.3318 17.7526 11.0771V2.30784H14.9834V10.154C14.9834 10.4088 14.7766 10.6155 14.5219 10.6155C14.2671 10.6155 14.0603 10.4088 14.0603 10.154V1.38477H11.2911V10.154C11.2911 10.4088 11.0843 10.6155 10.8296 10.6155C10.5748 10.6155 10.368 10.4088 10.368 10.154V3.23092H7.59879V14.7694L5.72955 12.2115C5.17571 11.3577 4.09479 11.0715 3.30279 11.5608C2.51355 12.0611 2.31786 13.1522 2.86432 14.0032C2.86432 14.0032 5.87909 18.566 7.16402 20.5192C8.44894 22.4725 10.5305 24.0002 14.4231 24.0002C20.868 24.0002 21.4449 19.0229 21.4449 17.5386C21.4449 16.0543 21.4449 5.07707 21.4449 5.07707H18.6757Z" fill="black"/>
</svg>
