<svg width="24" height="16" viewBox="0 0 24 16" fill="none" xmlns="http://www.w3.org/2000/svg">
<path d="M21.8542 2.81138C18.6842 -2.39669 13.909 1.22662 13.909 1.22662C13.5993 1.46069 13.0282 1.65313 12.6402 1.65403L11.3611 1.65492C10.9731 1.65537 10.402 1.46293 10.0928 1.22886C10.0928 1.22886 5.31701 -2.39535 2.14661 2.81272C-1.02289 8.019 0.254399 13.6889 0.254399 13.6889C0.478171 15.0772 1.21572 16.0036 2.60758 15.8873C3.99542 15.7713 7.00783 12.1485 7.00783 12.1485C7.25667 11.85 7.77806 11.6061 8.16518 11.6061L15.8334 11.6047C16.221 11.6047 16.7419 11.8486 16.9903 12.1471C16.9903 12.1471 20.0032 15.77 21.3932 15.8859C22.7833 16.0023 23.5226 15.075 23.7451 13.6876C23.7451 13.6876 25.0242 8.01855 21.8542 2.81138ZM9.11845 7.05051H7.47417V8.63526C7.47417 8.63526 7.12598 8.9011 6.58714 8.89439C6.04919 8.88634 5.80573 8.60438 5.80573 8.60438V7.05096H4.25275C4.25275 7.05096 4.05897 6.85225 4.00705 6.32907C3.95603 5.80589 4.22143 5.38296 4.22143 5.38296H5.86615V3.73869C5.86615 3.73869 6.20449 3.55743 6.69097 3.57131C7.1779 3.58652 7.53459 3.76957 7.53459 3.76957L7.52788 5.38252H9.08086C9.08086 5.38252 9.35207 5.73071 9.37444 6.1514C9.39682 6.57253 9.11845 7.05051 9.11845 7.05051ZM16.6605 8.8568C15.9404 8.8568 15.3599 8.27454 15.3599 7.55534C15.3599 6.83479 15.9404 6.25388 16.6605 6.25388C17.3774 6.25388 17.9624 6.83479 17.9624 7.55534C17.9624 8.27499 17.3774 8.8568 16.6605 8.8568ZM16.6605 5.276C15.9404 5.276 15.3599 4.69419 15.3599 3.97499C15.3599 3.25445 15.9404 2.67353 16.6605 2.67353C17.3774 2.67353 17.9624 3.25445 17.9624 3.97499C17.9624 4.69464 17.3774 5.276 16.6605 5.276ZM19.9016 7.1982C19.1815 7.1982 18.601 6.61639 18.601 5.89674C18.601 5.17665 19.1815 4.59529 19.9016 4.59529C20.6185 4.59529 21.2035 5.17665 21.2035 5.89674C21.2035 6.61639 20.6185 7.1982 19.9016 7.1982Z" fill="black"/>
</svg>
