<svg width="24" height="38" viewBox="0 0 24 38" fill="none" xmlns="http://www.w3.org/2000/svg">
<path d="M23.8954 14.6325C23.8252 14.5101 23.7234 14.4083 23.6005 14.3374C23.4775 14.2666 23.3377 14.2293 23.1953 14.2293H12.6542L14.4215 0.883357C14.4404 0.704743 14.398 0.525019 14.3011 0.373122C14.2041 0.221224 14.0583 0.105992 13.887 0.0459794C13.7158 -0.0140334 13.5291 -0.0153349 13.357 0.0422845C13.1849 0.0999039 13.0374 0.213091 12.9383 0.363622L0.119193 22.5611C0.0442306 22.6816 0.0031456 22.8197 0.000173545 22.9612C-0.0027985 23.1026 0.03245 23.2422 0.102285 23.3657C0.17212 23.4892 0.274015 23.592 0.397461 23.6636C0.520908 23.7352 0.661439 23.773 0.804565 23.773H11.1881L9.78762 37.139C9.77386 37.317 9.82073 37.4944 9.92076 37.643C10.0208 37.7917 10.1682 37.903 10.3396 37.9592C10.5111 38.0155 10.6966 38.0135 10.8667 37.9535C11.0368 37.8935 11.1818 37.779 11.2785 37.6283L23.8857 15.4332C23.9588 15.3125 23.9982 15.1748 23.9999 15.0341C24.0016 14.8934 23.9656 14.7549 23.8954 14.6325Z" fill="black"/>
</svg>
