<svg width="46" height="46" viewBox="0 0 46 46" fill="none" xmlns="http://www.w3.org/2000/svg">
<path d="M32.97 16.9285C31.6805 16.9285 30.4907 16.5013 29.5353 15.7807C28.4396 14.9545 27.6523 13.7427 27.3742 12.346C27.3054 12.0009 27.2684 11.6447 27.2648 11.2798H23.5813V21.3451L23.5768 26.8584C23.5768 28.3323 22.6171 29.5821 21.2864 30.0217C20.9003 30.1492 20.4833 30.2097 20.049 30.1858C19.4948 30.1554 18.9753 29.988 18.5239 29.7181C17.5631 29.1434 16.9118 28.1011 16.8941 26.9086C16.8663 25.045 18.373 23.5255 20.2353 23.5255C20.6028 23.5255 20.9559 23.5855 21.2864 23.6946V20.9435V19.9545C20.9379 19.903 20.5831 19.8759 20.2242 19.8759C18.1858 19.8759 16.2794 20.7232 14.9166 22.2498C13.8866 23.4033 13.2688 24.875 13.1735 26.4183C13.0486 28.4457 13.7904 30.3729 15.2291 31.7947C15.4405 32.0036 15.6624 32.1972 15.8946 32.376C17.128 33.3252 18.636 33.8398 20.2242 33.8398C20.5831 33.8398 20.9379 33.8133 21.2864 33.7618C22.7701 33.542 24.1391 32.8628 25.2194 31.7947C26.5468 30.4829 27.2802 28.7408 27.2881 26.887L27.2693 18.654C27.9025 19.1425 28.5949 19.5467 29.3381 19.8605C30.4939 20.3482 31.7193 20.5954 32.9806 20.5948V17.9201V16.9276L32.97 16.9285Z" fill="#010000"/>
</svg>
